<?xml version="1.0" encoding="UTF-8" standalone="no"?>
<!-- Created with Inkscape (http://www.inkscape.org/) -->

<svg
   xmlns:dc="http://purl.org/dc/elements/1.1/"
   xmlns:cc="http://creativecommons.org/ns#"
   xmlns:rdf="http://www.w3.org/1999/02/22-rdf-syntax-ns#"
   xmlns:svg="http://www.w3.org/2000/svg"
   xmlns="http://www.w3.org/2000/svg"
   xmlns:sodipodi="http://sodipodi.sourceforge.net/DTD/sodipodi-0.dtd"
   xmlns:inkscape="http://www.inkscape.org/namespaces/inkscape"
   width="210mm"
   height="297mm"
   viewBox="0 0 210 297"
   version="1.1"
   id="svg8"
   inkscape:version="0.92.1 r"
   sodipodi:docname="walkingcat.svg">
  <defs
     id="defs2">
    <inkscape:perspective
       sodipodi:type="inkscape:persp3d"
       inkscape:vp_x="0 : 148.5 : 1"
       inkscape:vp_y="0 : 1000 : 0"
       inkscape:vp_z="210 : 148.5 : 1"
       inkscape:persp3d-origin="105 : 99 : 1"
       id="perspective3952" />
  </defs>
  <sodipodi:namedview
     id="base"
     pagecolor="#ffffff"
     bordercolor="#666666"
     borderopacity="1.0"
     inkscape:pageopacity="0.0"
     inkscape:pageshadow="2"
     inkscape:zoom="1.1513381"
     inkscape:cx="368.17453"
     inkscape:cy="755.97475"
     inkscape:document-units="mm"
     inkscape:current-layer="layer1"
     showgrid="false"
     inkscape:object-paths="true"
     inkscape:measure-start="0,0"
     inkscape:measure-end="0,0"
     inkscape:window-width="1920"
     inkscape:window-height="1200"
     inkscape:window-x="0"
     inkscape:window-y="0"
     inkscape:window-maximized="0" />
  <metadata
     id="metadata5">
    <rdf:RDF>
      <cc:Work
         rdf:about="">
        <dc:format>image/svg+xml</dc:format>
        <dc:type
           rdf:resource="http://purl.org/dc/dcmitype/StillImage" />
        <dc:title></dc:title>
      </cc:Work>
    </rdf:RDF>
  </metadata>
  <g
     inkscape:label="Layer 1"
     inkscape:groupmode="layer"
     id="layer1">
    <path
       id="path4985"
       transform="scale(0.26458333)"
       style="fill:#666666;stroke:#000000;stroke-width:0.99999994px;stroke-linecap:butt;stroke-linejoin:miter;stroke-opacity:1"
       d="m 450.0918,192.21094 c -0.0684,0.01 -0.12848,0.0348 -0.17969,0.0859 -0.20485,0.20471 0.20485,0.6644 0,0.86914 -0.20474,0.20473 -0.66429,-0.20474 -0.86914,0 -0.20485,0.20473 0.20485,0.66444 0,0.86914 -0.2047,0.20473 -0.66429,-0.2047 -0.86914,0 -0.20485,0.20472 0.12964,0.6102 0,0.86914 -0.36624,0.73243 -1.28211,1.05498 -1.73633,1.73632 -0.35913,0.53867 -0.51009,1.19768 -0.86914,1.73633 -0.22711,0.34068 -0.57963,0.57963 -0.86914,0.86914 -0.28955,0.28952 -0.52665,0.64203 -0.86719,0.86914 -0.53866,0.3591 -1.2805,0.40942 -1.73828,0.86719 -0.45778,0.45776 -0.57768,1.15924 -0.86719,1.73828 -0.77578,1.55151 -0.96253,1.9231 -1.73828,3.47461 -0.28955,0.57904 -0.51008,1.19768 -0.86914,1.73633 -0.22711,0.34068 -0.57768,0.57963 -0.86719,0.86914 -0.57902,0.57903 -1.15922,1.15729 -1.73828,1.73633 -0.28951,0.28952 -0.68388,0.50294 -0.86719,0.86914 -0.12963,0.25895 0.20485,0.6644 0,0.86914 -1.15808,1.15806 -0.83459,-1.84385 -1.73828,0.86719 -0.1833,0.54932 0.18331,1.18896 0,1.73828 -0.12948,0.38843 -0.68388,0.50099 -0.86718,0.86719 -0.12964,0.25895 0.12963,0.6102 0,0.86914 -0.3662,0.73243 -1.37205,1.0039 -1.73829,1.73633 -0.12963,0.25895 0.12964,0.6102 0,0.86914 -0.18311,0.36622 -0.7395,0.48071 -0.86914,0.86914 -9.8e-4,0.004 8.4e-4,2.60463 0,2.60547 -0.20473,0.20473 -0.66233,-0.20474 -0.86718,0 -0.20485,0.20471 0.20485,0.6644 0,0.86914 -0.20474,0.20473 -0.66429,-0.20474 -0.86914,0 -0.20485,0.20472 0.20485,0.66248 0,0.86718 -0.40944,0.40944 -1.18702,-0.18311 -1.73633,0 -0.61418,0.20473 -1.73828,0.22175 -1.73828,0.86914 h -0.86719 c 0,-0.28951 -0.61024,-0.12948 -0.86914,0 -0.0493,0 -0.0472,0.0109 -0.0254,0.0234 -0.34202,0.204 -0.4455,0.84571 -0.84375,0.84571 -0.28951,0 0,-1.15866 0,-0.86915 v -3.47461 -0.86718 c 0,-0.28953 0.20485,-0.66444 0,-0.86914 -0.0869,-0.0869 -2.51854,-0.0869 -2.60547,0 -0.20485,0.20471 0.20485,0.6644 0,0.86914 -0.40944,0.40944 -1.32689,-0.40944 -1.73633,0 -0.20485,0.20472 0.20485,0.66249 0,0.86718 -0.20474,0.20474 -0.66429,-0.20469 -0.86914,0 -0.20485,0.20473 0.20485,0.66441 0,0.86915 -0.2047,0.20473 -0.66429,-0.20474 -0.86914,0 -0.20485,0.20471 0.20485,0.6644 0,0.86914 -0.20474,0.20473 -0.60829,-0.12949 -0.86719,0 -0.3662,0.1831 -0.5029,0.68407 -0.86914,0.86718 -0.25897,0.12949 -0.61024,-0.12948 -0.86914,0 -0.3662,0.18311 -0.5029,0.68603 -0.86914,0.86914 -0.25897,0.12949 -0.60829,-0.12948 -0.86719,0 -0.3662,0.1831 -0.48072,0.73966 -0.86914,0.86915 -0.54931,0.18311 -1.17458,-0.14045 -1.73633,0 -1.25612,0.31402 -2.21852,1.42228 -3.47461,1.73632 -0.68322,0.1708 -4.3077,0 -5.21093,0 h -8.68555 -4.34375 c -0.28951,0 -0.66429,0.20474 -0.86914,0 -0.20485,-0.20472 0.20485,-0.6644 0,-0.86914 -0.20474,-0.20473 -0.66234,0.20474 -0.86719,0 -0.20485,-0.20472 0.20485,-0.66249 0,-0.86718 -0.2047,-0.20474 -0.66429,0.20469 -0.86914,0 -0.40947,-0.40945 0.40944,-1.32885 0,-1.73829 -0.20474,-0.2047 -0.66429,0.20474 -0.86914,0 -0.40944,-0.40944 0.40944,-1.32688 0,-1.73632 -0.2047,-0.20474 -0.66234,0.20473 -0.86719,0 -0.20485,-0.20473 0.12964,-0.61021 0,-0.86915 -0.18311,-0.36622 -0.68621,-0.50098 -0.86914,-0.86718 -0.12964,-0.25895 0.12964,-0.61021 0,-0.86914 -0.18312,-0.36622 -0.68621,-0.50291 -0.86914,-0.86914 -0.12964,-0.25895 0.20485,-0.66441 0,-0.86914 -0.20474,-0.2047 -0.66234,0.20473 -0.86719,0 -0.40943,-0.40944 0.2589,-1.21842 0,-1.73633 -0.18311,-0.36622 -0.68583,-0.50294 -0.86914,-0.86914 -0.25889,-0.5179 0.2589,-1.21843 0,-1.73633 -0.18308,-0.36622 -0.68583,-0.50291 -0.86914,-0.86914 -0.12963,-0.25895 0.12964,-0.60825 0,-0.86719 -0.1542,-0.30844 -1.58212,-1.42983 -1.73633,-1.73828 -0.12948,-0.25896 0.2047,-0.66444 0,-0.86914 -0.45777,-0.45777 -1.2805,-0.40942 -1.73828,-0.86719 -0.40944,-0.40944 0.40944,-1.32884 0,-1.73828 -0.20471,-0.2047 -0.66245,0.20474 -0.86718,0 -0.17757,-0.17757 0.17219,-2.26108 0,-2.60547 -0.18311,-0.36621 -0.68603,-0.50099 -0.86914,-0.86719 -0.12949,-0.25895 0.20469,-0.66444 0,-0.86914 -0.59003,-0.59005 -1.72715,0.8875 -2.60547,-0.86914 -1.0696,-2.13921 2.5206,0.78427 -0.86914,-2.60547 -0.035,-0.0352 -3.15566,0 -3.47461,0 -0.28951,0 -0.66249,-0.20473 -0.86719,0 -0.43428,0.43428 0.43428,2.17119 0,2.60547 -0.20472,0.20474 -0.66444,-0.20473 -0.86914,0 -0.20474,0.20472 0.12949,0.61017 0,0.86914 -0.18311,0.36621 -0.68602,0.50295 -0.86914,0.86914 -0.12949,0.25895 0.20474,0.66245 0,0.86719 -0.20472,0.20474 -0.66245,-0.20474 -0.86719,0 -0.2047,0.20472 0.20474,0.6644 0,0.86914 -1.15807,1.15806 -0.86914,-1.447 -0.86914,0.86914 v 14.76563 6.07812 c 0,0.57905 -0.11357,1.17049 0,1.73828 0.17955,0.89776 0.7186,1.70239 0.86914,2.60547 0.14279,0.85673 0,1.73692 0,2.60547 v 2.60547 c 0,1.15807 -0.19037,2.3323 0,3.47461 0.10643,0.63858 0.71019,1.10828 0.86719,1.73633 0.29578,1.18309 -0.35025,4.16212 0,5.21289 0.12948,0.38843 0.73965,0.47876 0.86914,0.86719 0.26774,0.80319 -0.28611,4.63871 0,5.21093 0.1831,0.36622 0.73965,0.48071 0.86914,0.86914 0.19695,0.59088 -0.23029,3.88321 0,4.34375 0.18311,0.36622 0.57768,0.57768 0.86719,0.86719 0.57904,0.57904 1.28405,1.05693 1.73828,1.73828 0.22329,0.33496 -0.16124,2.12177 0,2.60547 0.20472,0.61416 0.66249,1.12217 0.86719,1.73633 0.0915,0.27466 -0.12949,0.6102 0,0.86914 1.9875,3.97504 -0.35882,-3.68584 1.73828,2.60547 0.0915,0.27466 -0.12949,0.6102 0,0.86914 0.36621,0.73243 1.28209,1.05498 1.73633,1.73633 0.3591,0.53865 0.41137,1.28051 0.86914,1.73828 0.45776,0.45777 1.19767,0.50809 1.73632,0.86719 0.68135,0.45423 1.05693,1.28405 1.73828,1.73828 0.53865,0.35911 1.19767,0.50809 1.73633,0.86719 0.34069,0.22711 0.57963,0.57962 0.86914,0.86914 0.57907,0.57904 1.15727,1.15728 1.73633,1.73632 0.57903,0.57904 1.08318,1.24695 1.73828,1.73828 0.51791,0.38843 1.27855,0.41138 1.73633,0.86915 1.79138,1.7914 0.99286,2.9763 3.47461,3.47265 0.85168,0.17035 1.73693,0 2.60547,0 h 3.47461 c 0.55892,0 5.49228,0.14695 6.08008,0 0.62804,-0.15701 1.10152,-0.74023 1.73632,-0.86719 0.85168,-0.17034 1.73694,0 2.60547,0 h 6.08008 c 0.57903,0 1.17458,0.14045 1.73633,0 0.62804,-0.15701 1.1102,-0.71213 1.73828,-0.86914 0.56175,-0.14041 1.21842,0.25898 1.73633,0 0.73243,-0.36621 1.03608,-1.31501 1.73828,-1.73632 0.78505,-0.47104 1.75542,-0.52914 2.60547,-0.86915 0.6011,-0.24043 1.09778,-0.7627 1.73633,-0.86914 1.14232,-0.19037 2.32816,0.16377 3.47461,0 2.25891,-0.32271 4.02938,-1.78519 6.08008,-2.60546 0.85005,-0.34002 1.75545,-0.52914 2.60546,-0.86914 1.2022,-0.48087 2.36438,-1.07018 3.47461,-1.73633 0.89515,-0.53707 1.86733,-0.9982 2.60547,-1.73633 0.21075,-0.21074 2.41763,-4.74329 2.60547,-5.21289 0.38835,-0.9709 1.79019,-5.2648 2.60547,-6.08008 0.73814,-0.73813 1.86733,-0.9982 2.60547,-1.73633 0.45777,-0.45777 0.57963,-1.15729 0.86914,-1.73633 0.28951,-0.57903 0.71191,-1.11023 0.86914,-1.73828 0.14022,-0.56175 -0.0952,-1.16516 0,-1.73633 0.19623,-1.17747 0.57768,-2.31653 0.86719,-3.4746 0.28951,-0.57904 0.71191,-1.10827 0.86914,-1.73633 0.1406,-0.56174 -0.11339,-1.1705 0,-1.73828 0.17953,-0.89777 0.57963,-1.73692 0.86914,-2.60547 0,-0.86855 -0.17046,-1.75378 0,-2.60547 0.12695,-0.63482 0.70996,-1.10828 0.86719,-1.73633 0.14022,-0.56175 0,-1.15924 0,-1.73828 v -6.08008 -11.29102 c 0,-0.22685 0.14551,-4.77426 0,-5.21093 -0.20474,-0.61416 -0.66234,-1.12217 -0.86719,-1.73633 -0.0915,-0.27466 0,-0.57963 0,-0.86914 v -7.81641 c 0,-1.44759 1.86067,-2.23332 2.60547,-3.47461 0.13304,-0.22145 0,-4.59802 0,-5.21093 0,-0.31897 0.034,-3.43946 0,-3.47461 -0.20474,-0.2047 -0.66429,0.20473 -0.86914,0 -0.20485,-0.20472 0.20485,-0.66441 0,-0.86914 -0.2047,-0.20474 -0.66429,0.20473 -0.86914,0 -0.20485,-0.20473 0.20485,-0.66441 0,-0.86914 -0.20474,-0.20474 -0.57768,0 -0.86719,0 h -0.86914 -0.86914 c -0.21714,0 -0.48227,-0.11473 -0.6875,-0.0859 z m 2.42578,13.98437 c 0,0.65314 0.21802,1.25169 0.52344,1.83008 z m 0.52344,1.83008 1.21289,4.25 c 0.30956,-0.61914 0.50017,-1.04139 0.63476,-1.33203 -0.53642,-1.00021 -1.32498,-1.92813 -1.84765,-2.91797 z m 1.84765,2.91797 c 0.0822,0.15325 0.16691,0.30547 0.23438,0.46289 0.008,0.018 0.008,0.0549 0.0137,0.0781 0.0234,-0.94613 0.0344,-1.15085 -0.24805,-0.54102 z m 0.24805,0.54102 c -0.006,0.24525 -0.0137,0.43491 -0.0137,0.79101 0,0.26991 0.0927,-0.47163 0.0137,-0.79101 z m -33.01953,17.29296 v 1.73633 c 0,2.31615 0.28894,-0.28894 -0.86914,0.86914 -0.20485,0.20472 0.20485,0.66441 0,0.86914 -0.20474,0.20474 -0.59242,-0.0915 -0.86719,0 -1.97236,0.65746 -2.04183,0.82634 -1.54297,0.86719 h -0.19531 -0.86719 c -0.28951,0 -0.86914,0.28951 -0.86914,0 0,-0.63863 0.84236,-1.07772 0.86523,-1.71094 0.24122,-0.35312 0.51429,-0.71612 0.8711,-0.89453 0.51791,-0.25893 1.32884,0.40944 1.73828,0 0.20485,-0.20472 -0.20485,-0.66245 0,-0.86719 1.7972,-1.79706 -0.071,2.74558 1.73633,-0.86914 z" />
    <path
       id="path4989"
       transform="scale(0.26458333)"
       style="fill:#666666;stroke:#000000;stroke-width:0.99999994px;stroke-linecap:butt;stroke-linejoin:miter;stroke-opacity:1"
       d="m 419.55078,281.14844 c -1.10863,0.0547 -1.85874,0.20074 -2.34961,0.41211 z m -2.34961,0.41211 -21.125,3.70703 c -0.0529,2.72036 -0.0156,2.25689 -0.0156,6.04492 0,0.21064 0.0265,2.5775 0,2.60547 -0.2047,0.20474 -0.66429,-0.2047 -0.86914,0 -0.47947,0.47946 0.92298,3.47461 -0.86719,3.47461 0,0.28952 0.20485,0.6644 0,0.86914 -0.17756,0.17756 -2.26116,-0.1722 -2.60547,0 -0.36624,0.18311 -0.5029,0.68602 -0.86914,0.86914 -0.51791,0.25893 -1.32689,-0.40944 -1.73633,0 -0.45778,0.45777 -0.4114,1.27855 -0.86914,1.73633 -0.40944,0.40944 -1.18896,-0.18312 -1.73828,0 -0.61417,0.20472 -1.10828,0.71214 -1.73633,0.86914 -0.56175,0.14045 -1.18701,-0.18312 -1.73633,0 -0.38846,0.12948 -0.5029,0.68407 -0.86914,0.86719 -0.25893,0.12948 -0.66429,-0.2047 -0.86914,0 -0.20485,0.20472 0.20485,0.6644 0,0.86914 -0.40947,0.40944 -1.32685,-0.40944 -1.73633,0 -0.20485,0.20471 0.20485,0.6644 0,0.86914 -0.2047,0.2047 -0.61024,-0.12949 -0.86914,0 -0.3662,0.18311 -0.5029,0.68407 -0.86914,0.86718 -0.51789,0.25894 -1.21843,-0.25893 -1.73633,0 -0.36622,0.18311 -0.5029,0.68606 -0.86914,0.86914 -0.25895,0.12949 -0.7377,-0.2589 -0.86718,0 -0.25898,0.51791 0.25893,1.22039 0,1.73829 -0.12948,0.25897 -0.61021,-0.12949 -0.86914,0 -0.36621,0.18311 -0.50298,0.68407 -0.86914,0.86718 -0.25896,0.12949 -0.66249,-0.20473 -0.86719,0 -0.20474,0.20472 0.12948,0.61021 0,0.86914 -0.18311,0.36622 -0.68603,0.50291 -0.86914,0.86915 -0.12949,0.25892 0.2047,0.66248 0,0.86718 -1.7971,1.79707 0.0691,-2.74558 -1.73828,0.86914 -0.12949,0.25895 0.20473,0.66444 0,0.86914 -1.15807,1.15808 -0.83265,-1.84385 -1.73633,0.86719 -0.18312,0.54932 0,1.15925 0,1.73828 0,0.28952 0.12948,0.61021 0,0.86914 -0.18311,0.36621 -0.68603,0.50099 -0.86914,0.86719 -0.20383,0.4077 0.11988,2.75536 0,3.47461 -0.24269,1.45618 -0.65841,2.88232 -0.86719,4.34375 -0.16086,1.1259 0.24128,3.37674 0,4.3418 -0.0993,0.39721 -0.68602,0.50294 -0.86914,0.86914 -0.12949,0.25896 0.2047,0.66248 0,0.86718 -0.20473,0.2047 -0.6644,-0.2047 -0.86914,0 -0.2047,0.20472 0.0916,0.59449 0,0.86915 -0.20472,0.61415 -0.66245,1.12412 -0.86719,1.73828 -0.0916,0.27466 0.12949,0.60821 0,0.86718 -0.18311,0.36621 -0.64203,0.5285 -0.86914,0.86915 -0.3591,0.53863 -0.57963,1.15728 -0.86914,1.73632 0,0.28952 0.12949,0.61021 0,0.86914 -0.18311,0.36622 -0.68602,0.50291 -0.86914,0.86914 -0.1722,0.34438 0.17756,2.42791 0,2.60547 -0.20472,0.20474 -0.66249,-0.2047 -0.86719,0 -0.43428,0.43429 0.43427,2.17119 0,2.60547 -0.20472,0.20474 -0.73965,-0.25897 -0.86914,0 -0.25893,0.5179 0,1.15729 0,1.73633 -0.28952,0.28951 -0.68602,0.50294 -0.86914,0.86914 -0.25894,0.51791 0.40944,1.32689 0,1.73633 -0.20472,0.2047 -0.66249,-0.20474 -0.86719,0 -0.43427,0.43428 0.43428,2.17315 0,2.60742 -0.20472,0.2047 -0.6644,-0.20474 -0.86914,0 -0.2047,0.20472 0.0915,0.59253 0,0.86719 -0.20472,0.61416 -0.66444,1.12412 -0.86914,1.73828 -0.0915,0.27466 0.12949,0.60825 0,0.86719 -0.1831,0.36621 -0.68407,0.5029 -0.86719,0.86914 -0.25893,0.5179 0.40944,1.32689 0,1.73633 -0.20472,0.20473 -0.66444,-0.2047 -0.86914,0 -0.209,0.209 0.20901,3.2656 0,3.47461 -0.32464,0.32461 -0.5692,0.54498 -0.79883,0.74609 -0.023,0.0429 -0.042,0.0947 -0.0703,0.12305 -0.0418,0.0418 -0.0946,0.0574 -0.14843,0.0703 -0.93404,0.76909 -0.9734,0.41492 -0.7168,-0.0703 -0.001,-10e-6 -0.003,0 -0.004,0 h -0.86719 -0.86914 c -0.28952,0 -0.6644,-0.20474 -0.86914,0 -0.20473,0.20471 0,0.57962 0,0.86914 0,0.78288 -0.18221,3.79512 0,4.34179 0.20472,0.61416 0.66441,1.12411 0.86914,1.73828 0.0915,0.27467 -0.12948,0.60826 0,0.86719 0.1831,0.36621 0.68603,0.50294 0.86914,0.86914 0.1722,0.34438 -0.17756,2.42791 0,2.60547 0.20473,0.20474 0.66245,-0.20474 0.86719,0 0.23766,0.23765 -0.23558,3.00343 0,3.47461 0.1831,0.36621 0.68602,0.50294 0.86914,0.86914 0.25894,0.51791 -0.40944,1.32686 0,1.73633 0.45778,0.45774 1.28051,0.41136 1.73828,0.86914 0.2047,0.20474 0,0.57768 0,0.86719 v 5.21289 c 0,0.28951 -0.20473,0.66234 0,0.86719 0.20472,0.20485 0.66245,-0.20485 0.86719,0 0.2047,0.20473 -0.20474,0.66429 0,0.86914 0.45777,0.45777 1.73828,0.22178 1.73828,0.86914 0,0.0137 -0.009,0.0192 -0.01,0.0312 0.71907,0.03 1.56591,0.0589 1.74609,-0.0312 1.75664,-0.87833 0.27911,-2.01545 0.86914,-2.60547 0.20472,-0.20485 0.66245,0.20485 0.86719,0 0.40944,-0.40944 -0.40944,-1.32885 0,-1.73828 0.20472,-0.20485 0.66444,0.20485 0.86914,0 0.20474,-0.20474 0,-0.57963 0,-0.86914 v -0.86719 -23.45117 -6.94922 c 0,-0.45419 -0.11418,-3.24625 0,-3.47461 0.1831,-0.36622 0.73965,-0.47876 0.86914,-0.86719 0.27466,-0.82398 0,-1.73691 0,-2.60547 v -0.86914 c 0,-0.28952 -0.12949,-0.6102 0,-0.86914 0.36622,-0.73243 1.37013,-1.0039 1.73633,-1.73633 0.12948,-0.25895 -0.2047,-0.6644 0,-0.86914 0.20472,-0.2047 0.6644,0.20474 0.86914,0 0.2047,-0.20472 -0.0916,-0.59448 0,-0.86914 0.20472,-0.61416 0.41137,-1.27856 0.86914,-1.73633 0.20472,-0.20473 0.57768,0 0.86719,0 h 6.08008 c 0.31893,0 3.43945,-0.0351 3.4746,0 0.20474,0.20472 0,0.57963 0,0.86914 v 5.21094 0.86914 c 0,0.28952 -0.20473,0.66249 0,0.86719 0.20472,0.20474 0.66444,-0.2047 0.86914,0 0.2047,0.20472 0,0.57963 0,0.86914 v 0.86914 5.21094 0.86914 c 0,0.28952 0.12949,0.60825 0,0.86719 -0.18308,0.36621 -0.73965,0.48071 -0.86914,0.86914 -0.30765,0.92293 0.30766,2.55168 0,3.47461 -0.20473,0.61417 -0.6644,1.12217 -0.86914,1.73633 -0.27465,0.82395 0.21067,1.76284 0,2.60546 -0.15701,0.62806 -0.57767,1.15927 -0.86718,1.73828 -0.28952,0.28952 -0.73966,0.47876 -0.86914,0.86719 -0.18312,0.54932 0.18311,1.18896 0,1.73828 -0.12948,0.38843 -0.73969,0.48071 -0.86914,0.86914 -0.26057,0.78169 0.26053,1.82377 0,2.60547 -0.20472,0.61416 -0.66249,1.12217 -0.86719,1.73633 -0.0916,0.27466 0.12948,0.61021 0,0.86914 -0.18311,0.36622 -0.68603,0.50095 -0.86914,0.86719 -0.12949,0.25895 0.0915,0.59448 0,0.86914 -0.20473,0.61416 -0.71214,1.11023 -0.86914,1.73828 -0.21064,0.84263 0.27465,1.7815 0,2.60547 -0.20472,0.61417 -0.66441,1.12215 -0.86914,1.73633 -0.0916,0.27466 0,0.57963 0,0.86914 v 3.47461 c 0,0.57902 0.14044,1.17458 0,1.73633 -0.22205,0.88819 -0.57768,1.73696 -0.86719,2.60546 -0.28951,10e-6 -0.66441,-0.20482 -0.86914,0 -0.2047,0.20474 0.0702,0.58833 0,0.86915 -0.22205,0.88818 -0.6471,1.71728 -0.86914,2.60546 -0.0702,0.2809 0.12948,0.61025 0,0.86915 -0.18311,0.36616 -0.68407,0.50095 -0.86719,0.86718 -0.12949,0.25898 0.0915,0.59437 0,0.86914 -0.20472,0.61414 -0.66444,1.12216 -0.86914,1.73633 -0.18312,0.54932 0.25893,1.22037 0,1.73828 -0.18311,0.3662 -0.68602,0.50095 -0.86914,0.86719 -0.25894,0.51791 0.40944,1.32885 0,1.73828 -0.20472,0.20485 -0.7377,-0.2589 -0.86719,0 -0.12707,0.25414 0,4.50005 0,5.21094 0,0.28951 0.12949,0.61024 0,0.86914 -0.18311,0.3662 -0.68602,0.50095 -0.86914,0.86719 -0.2637,0.52743 0.2637,4.68549 0,5.21289 -0.18311,0.36623 -0.68602,0.50098 -0.86914,0.86718 -0.1722,0.3444 0.17756,2.42784 0,2.60547 -0.20472,0.20485 -0.6644,-0.20485 -0.86914,0 -0.40944,0.40948 0.40944,1.32885 0,1.73829 -0.20472,0.20482 -0.66249,-0.20486 -0.86719,0 -0.40944,0.40944 0.18312,1.18697 0,1.73632 -0.20472,0.61414 -0.6644,1.12411 -0.86914,1.73828 -0.18312,0.54932 0.25897,1.21842 0,1.73633 -0.1831,0.3662 -0.68602,0.50291 -0.86914,0.86914 -0.25894,0.51791 0.40944,1.3269 0,1.73633 -0.20472,0.20485 -0.66249,-0.20485 -0.86719,0 -0.20473,0.20474 0.2047,0.66429 0,0.86914 -0.20472,0.20485 -0.6644,-0.20485 -0.86914,0 -0.40944,0.40948 0.40944,1.32689 0,1.73633 -0.20472,0.20485 -0.66444,-0.20485 -0.86914,0 -0.20474,0.20474 0,0.57963 0,0.86914 v 0.86914 6.94727 c 0,0.28951 -0.20474,0.66429 0,0.86914 -0.73243,0.36623 -1.00391,1.37009 -1.73633,1.73633 -0.25896,0.12963 -0.6102,-0.12964 -0.86914,0 -0.36621,0.18311 -0.52845,0.64199 -0.86914,0.86914 -0.53866,0.35909 -1.19768,0.51008 -1.73633,0.86914 -1.843,1.22867 -1.18417,1.01138 -0.57422,0.74218 -0.34185,0.16147 -0.7543,0.35566 -2.03124,0.99415 -1.15565,0.77038 -1.79116,2.66031 -2.60547,3.4746 -0.45777,0.45778 -1.15925,0.57966 -1.73829,0.86914 -0.57901,0.28952 -1.12216,0.66234 -1.73632,0.86719 -0.27466,0.0915 -0.61021,-0.12964 -0.86914,0 -0.23062,0.11532 -2.49016,2.37492 -2.60547,2.60547 -0.40944,0.81887 -0.57768,1.73889 -0.86719,2.60742 -0.28952,0 -0.6644,-0.20485 -0.86914,0 -0.45777,0.45778 -0.41137,1.27859 -0.86914,1.73633 -1.79713,1.79709 0.071,-2.7456 -1.73633,0.86914 -0.12949,0.25894 0.12949,0.60829 0,0.86719 -0.18311,0.36624 -0.64203,0.5286 -0.86914,0.86914 -0.84381,1.26573 -0.54146,1.8089 -1.73633,2.60547 -0.53866,0.35913 -1.28052,0.41136 -1.73828,0.86914 -0.45777,0.45778 -0.40942,1.27855 -0.86719,1.73633 -0.45777,0.45777 -1.28051,0.41136 -1.73828,0.86914 -0.45777,0.45777 -0.41137,1.27855 -0.86914,1.73633 -0.45777,0.45777 -1.27856,0.41136 -1.73633,0.86914 -0.45777,0.45777 -0.35123,1.3479 -0.86914,1.73633 -0.73243,0.54913 -1.78659,0.4597 -2.60547,0.86914 -0.36621,0.18311 -0.57767,0.57962 -0.86718,0.86914 -0.57904,0.57902 -1.08319,1.24499 -1.73829,1.73632 -0.51788,0.38843 -1.21842,0.48075 -1.73632,0.86914 -0.65511,0.49134 -1.00585,1.3701 -1.73828,1.73633 -0.51791,0.2589 -1.18701,-0.18293 -1.73633,0 -0.38843,0.12949 -0.52846,0.64199 -0.86914,0.86914 -0.53865,0.3591 -1.15729,0.57963 -1.73633,0.86914 -0.28951,0 -0.61021,-0.12963 -0.86914,0 -0.36621,0.18308 -0.50294,0.68388 -0.86914,0.86719 -0.25896,0.12964 -0.60825,-0.12964 -0.86719,0 -0.73243,0.3662 -1.00585,1.37205 -1.73828,1.73828 -0.25895,0.12964 -0.60825,-0.12963 -0.86719,0 -0.36622,0.18312 -0.5029,0.68426 -0.86914,0.86719 -0.25895,0.12964 -0.57963,0 -0.86914,0 h -1.73633 -11.29101 c -0.20437,0 -2.93041,-0.323 -1.73828,0.86914 0.20469,0.20485 0.73965,-0.2589 0.86914,0 0.25897,0.51791 -0.18312,1.18897 0,1.73828 0.62302,1.86907 0.84234,1.16534 0.90625,0.6211 -0.0171,0.29258 -0.0371,0.74108 -0.0371,1.98437 0.12948,0.38846 0.64007,0.52665 0.86718,0.86719 0.71821,1.07732 1.02011,2.39729 1.73828,3.47461 0.22712,0.34068 0.73966,0.48068 0.86915,0.86914 0.18311,0.54932 -0.18312,1.18697 0,1.73633 0.12947,0.38842 0.64007,0.5286 0.86718,0.86914 0.35911,0.53866 0.62869,1.13523 0.86914,1.73633 0.34002,0.85005 0.3981,1.82233 0.86914,2.60742 0.42131,0.70216 1.15729,1.15726 1.73633,1.73633 0.57904,0.57902 1.09689,1.22476 1.73633,1.73632 0.81513,0.65209 1.86929,1.00018 2.60742,1.73829 0.73813,0.73811 0.92121,1.95338 1.73633,2.60546 0.71492,0.57188 1.8204,0.3981 2.60547,0.86914 0.70218,0.42131 1.03414,1.31499 1.73633,1.73633 0.78506,0.47105 1.75736,0.52899 2.60742,0.86914 1.20216,0.48087 2.3624,1.07019 3.47266,1.73633 0.66715,0.40033 3.20923,2.32163 4.34375,2.60547 0.56174,0.1406 1.1987,-0.21506 1.73632,0 0.96921,0.38767 1.646,1.32707 2.60547,1.73828 1.0972,0.47021 2.34216,0.48961 3.47461,0.86719 0.54326,0.18109 0.75748,0.27546 1.0586,0.39258 0.91325,-0.27922 1.85729,-0.53918 2.85742,-0.75977 v -0.002 c 0.17993,-0.0397 0.36183,-0.0702 0.54297,-0.10547 1.15318,-0.70325 2.23925,-1.33018 2.4375,-1.25391 3.70775,1.42652 7.85197,2.99415 11.32812,5.20313 h 0.88477 7.8164 1.73633 c 0.025,0 0.0511,0.007 0.0762,0.008 0.73516,-0.26564 1.63124,-0.48495 2.73633,-0.66602 0.49748,-0.38064 0.97503,-0.8 1.53125,-1.07812 0.81888,-0.40944 1.73692,-0.57963 2.60547,-0.86914 1.86431,-0.62143 2.7443,-0.77784 4.3418,-1.73633 2.99259,-1.79558 4.49544,-3.62629 6.94922,-6.08008 0.28951,-0.28951 0.57962,-0.57963 0.86914,-0.86914 0.28951,-0.28955 0.50099,-0.68583 0.86718,-0.86914 0.51792,-0.2589 1.32887,0.40944 1.73828,0 0.2047,-0.2047 -0.12945,-0.60829 0,-0.86719 0.17968,-0.35935 2.23735,-2.36213 2.60547,-2.60742 0.5387,-0.35909 1.21842,-0.47876 1.73633,-0.86718 1.31018,-0.98264 2.1644,-2.49198 3.47461,-3.47461 0.51791,-0.38846 1.27855,-0.41137 1.73633,-0.86915 0.7381,-0.73811 1.08616,-1.79033 1.73828,-2.60546 1.92045,-2.40046 1.47809,-1.45997 4.3418,-2.60547 0.60109,-0.24042 1.11583,-0.69113 1.73828,-0.86914 3.04721,-0.87066 3.86909,-0.26235 6.08008,-1.73633 0.34065,-0.22715 0.68388,-0.50291 0.86718,-0.86914 0.13229,-0.26434 0,-2.21429 0,-2.60547 0,-0.28951 -0.20485,-0.66429 0,-0.86914 0.20474,-0.20485 0.66432,0.20485 0.86914,0 0.20486,-0.2047 -0.20482,-0.66234 0,-0.86719 0.2047,-0.20485 0.6643,0.20485 0.86915,0 0.4343,-0.43427 -0.43427,-2.1712 0,-2.60547 0.20473,-0.20485 0.66233,0.20485 0.86718,0 1.79706,-1.7972 -2.74556,0.0691 0.86914,-1.73828 1.19804,-0.59909 0.7781,1.05131 1.73829,-0.86914 0.15719,-0.31408 -10e-6,-3.73768 0,-4.3418 0,-1.09028 0.164,-4.88287 0,-5.21093 -0.18309,-0.36624 -0.68584,-0.50291 -0.86915,-0.86914 -0.34733,-0.69483 0.34734,-1.91064 0,-2.60547 -0.18311,-0.36624 -0.68621,-0.50291 -0.86914,-0.86914 -0.12963,-0.25894 0.12964,-0.60829 0,-0.86719 -0.18308,-0.36624 -0.7395,-0.48072 -0.86914,-0.86914 -0.001,-0.004 8.3e-4,-2.60464 0,-2.60547 -0.20473,-0.20485 -0.66233,0.20485 -0.86718,0 -0.20485,-0.20474 0.12963,-0.61024 0,-0.86914 -0.18308,-0.3662 -0.68622,-0.50291 -0.86915,-0.86914 -0.1296,-0.25898 10e-6,-0.57768 0,-0.86719 v -0.86914 -4.3418 -0.86914 c 0,-0.28955 0.20486,-0.66429 0,-0.86914 -0.2047,-0.20485 -0.66429,0.20485 -0.86914,0 -1.79705,-1.7972 2.74752,0.071 -0.86718,-1.73633 -0.25898,-0.12963 -0.86914,0.28952 -0.86914,0 0,-0.39575 0.80514,-0.45873 0.85937,-0.83203 0.98226,-0.0446 2.47503,-0.17735 2.61524,-0.0371 0.20485,0.2047 -0.20485,0.66429 0,0.86914 0.40943,0.40944 1.32689,-0.40943 1.73632,0 0.20485,0.20474 -0.25889,0.73755 0,0.86719 0.51791,0.2589 1.22038,-0.2589 1.73829,0 0.36053,0.18025 -0.30312,2.30431 0,2.60742 0.2047,0.20485 0.66233,-0.20485 0.86718,0 0.40944,0.40944 -0.40943,1.3269 0,1.73633 0.2047,0.20485 0.66429,-0.20485 0.86914,0 0.20485,0.20474 0,0.57963 0,0.86914 v 0.86719 9.55469 c 0,0.40951 -0.0393,4.30249 0,4.34179 0.20474,0.20485 0.66429,-0.20485 0.86914,0 0.20485,0.20474 -0.12963,0.61025 0,0.86914 0.18312,0.3662 0.68426,0.50294 0.86719,0.86914 0.12964,0.25898 -0.20485,0.6643 0,0.86915 1.15809,1.15804 0.86914,-1.44895 0.86914,0.86718 0.2047,0.20485 0.66429,-0.20485 0.86914,0 0.20485,0.20474 -0.20485,0.66429 0,0.86914 0.20474,0.20485 0.66234,-0.20485 0.86719,0 0.43427,0.43427 -0.43427,2.17117 0,2.60547 0.2047,0.20485 0.57963,0 0.86914,0 0.28951,0 0.59437,0.0915 0.86914,0 0.61417,-0.20473 1.08893,-0.86914 1.73633,-0.86914 0.2839,-0.14192 0.60447,-0.12738 0.93164,-0.0859 -0.0374,0.0202 -0.0625,0.0459 -0.0625,0.0859 0,0.28951 0.57963,0 0.86914,0 0.28951,0 0.66234,0.20485 0.86719,0 0.20485,-0.20474 0,-0.57767 0,-0.86719 v -0.86914 -0.86914 -2.60547 c 0,-0.31895 0.034,-3.44062 0,-3.4746 -0.2047,-0.20486 -0.66234,0.20482 -0.86719,0 -0.20485,-0.20474 0,-0.57768 0,-0.86719 v -0.86914 c 0.28951,0 0,-0.57963 0,-0.86914 v -0.86719 c 0.28951,0 0,-0.57963 0,-0.86914 v -0.86914 c 0.28951,0 0,-0.57768 0,-0.86719 v -0.86914 c 0,-0.28951 0.20485,-0.66429 0,-0.86914 -0.20474,-0.20485 -0.66429,0.20485 -0.86914,0 -0.20485,-0.2047 0,-0.57963 0,-0.86914 0,-0.40951 -0.0393,-4.30249 0,-4.3418 0.20474,-0.20485 0.66429,0.20485 0.86914,0 0.45778,-0.45774 0.86719,-1.08893 0.86719,-1.73633 0.20485,-0.2047 -0.20485,-0.66429 0,-0.86914 0.20474,-0.20485 0.66429,0.20485 0.86914,0 0.40943,-0.40943 -0.40944,-1.32884 0,-1.73828 0.20474,-0.20485 0.66429,0.20485 0.86914,0 0.40947,-0.40943 -0.40944,-1.32689 0,-1.73633 0.57023,-0.57023 0.81936,-0.20083 0.91992,0.16016 -0.0168,-0.21532 -0.0295,-0.56554 -0.0391,-1.03516 0.14305,-0.0167 0.0603,-0.22875 -0.008,-0.44922 -0.001,-0.15343 -0.006,-0.23453 -0.006,-0.41211 0.20473,-0.20482 0.66429,0.20486 0.86914,0 0.20485,-0.2047 -0.0703,-0.58832 0,-0.86914 0.22208,-0.88818 0.22174,-1.95811 0.86914,-2.60546 v -0.86914 -6.94727 -13.89844 c 0,-0.61565 0.11225,-4.98643 0,-5.21094 -1.07343,-2.14654 -0.86914,0.30058 -0.86914,-1.73632 v -8.68555 c 0.28951,0 0,-0.57963 0,-0.86914 v -0.86914 c 0.28951,0 0,-0.57768 0,-0.86719 v -0.86914 -1.73633 -3.47461 -12.16015 -5.21094 c 0,-0.39118 -0.13229,-2.34128 0,-2.60547 0.18312,-0.3662 0.68583,-0.5029 0.86914,-0.86914 0.17234,-0.34439 -0.17764,-2.42791 0,-2.60547 0.2047,-0.20474 0.66429,0.2047 0.86914,0 0.4343,-0.43428 -0.43427,-2.17119 0,-2.60547 0.45778,-0.45777 1.27855,-0.41137 1.73633,-0.86914 0.20485,-0.20472 0,-0.57963 0,-0.86914 v -0.86719 c 0,-0.61563 -0.11226,-4.98831 0,-5.21289 0.18308,-0.36621 0.68583,-0.50099 0.86914,-0.86719 0.23546,-0.47115 -0.23773,-3.23695 0,-3.4746 0.2047,-0.20474 0.66236,0.20469 0.86718,0 0.43427,-0.43428 -0.43427,-2.17119 0,-2.60547 0.2047,-0.2047 0.6643,0.20473 0.86915,0 v 16.50195 c 0,0.31897 -0.034,3.44059 0,3.47461 0.20469,0.20485 0.66429,-0.20485 0.86914,0 0.28611,0.2863 -0.20939,2.84607 0,3.47461 0.12945,0.38842 0.68388,0.50095 0.86718,0.86719 0.12964,0.25897 -0.0915,0.59437 0,0.86914 0.20474,0.61413 0.66429,1.1241 0.86914,1.73828 0.0915,0.27466 -0.12963,0.60829 0,0.86719 0.3662,0.73243 1.28406,1.05694 1.73829,1.73828 1.66832,2.5025 0.33202,2.60547 3.47265,2.60547 h 0.86914 c 0.28951,0 0.66429,0.20485 0.86914,0 0.20485,-0.20474 -0.20485,-0.66429 0,-0.86915 0.20474,-0.20482 0.60829,0.12964 0.86719,0 0.3662,-0.18308 0.50291,-0.68621 0.86914,-0.86914 0.25894,-0.12963 0.66429,0.20485 0.86914,0 0.20485,-0.20473 0,-0.57767 0,-0.86718 1.15809,-0.57903 2.31653,-1.15922 3.47461,-1.73828 0.23169,-0.17371 -0.12964,-0.60829 0,-0.86719 0.18312,-0.36624 0.68388,-0.50291 0.86719,-0.86914 0.12964,-0.25894 -0.20485,-0.66429 0,-0.86914 0.2047,-0.20485 0.66429,0.20485 0.86914,0 0.40944,-0.40944 -0.40944,-1.3269 0,-1.73633 0.20474,-0.20485 0.66429,0.20485 0.86914,0 0.40944,-0.40944 -0.2589,-1.22037 0,-1.73828 0.18308,-0.36624 0.68426,-0.50095 0.86719,-0.86719 0.11414,-0.22836 0,-3.02043 0,-3.47461 0,-0.31897 0.034,-3.43984 0,-3.47461 -0.20474,-0.20474 -0.59242,-0.0916 -0.86719,0 -0.61417,0.20472 -1.09092,0.86914 -1.73828,0.86914 -0.12964,0.25896 0.20485,0.66245 0,0.86719 -0.20474,0.20474 -0.66234,-0.20474 -0.86719,0 -0.40943,0.40944 0.2589,1.22037 0,1.73828 -0.3662,0.73243 -1.37204,1.00391 -1.73828,1.73633 -0.2589,0.51791 0.40944,1.32884 0,1.73828 -0.75893,0.75893 -1.3973,-0.86914 -1.73633,-0.86914 v -0.86914 -3.47461 -9.55274 -13.89648 -4.34375 -0.86914 c 0,-0.28952 0.12964,-0.60825 0,-0.86719 -0.18312,-0.36621 -0.7395,-0.48071 -0.86914,-0.86914 -0.14816,-0.44461 0,-4.59 0,-5.21094 0,-0.28951 0.12964,-0.61016 0,-0.86914 -0.18312,-0.36621 -0.68583,-0.50294 -0.86914,-0.86914 -0.12964,-0.25895 0,-0.57767 0,-0.86718 v -1.73829 c 0,-1.38609 0.21279,-5.22911 0,-6.08007 -0.0993,-0.39721 -0.73755,-0.47876 -0.86719,-0.86719 -0.18293,-0.54932 0,-1.15924 0,-1.73828 v -6.08008 -0.86719 c 0,-0.28952 0.12964,-0.6102 0,-0.86914 -0.18308,-0.36622 -0.68583,-0.5029 -0.86914,-0.86914 -0.38842,-0.77686 0.77688,-1.92031 0,-2.60547 -0.12948,-0.25893 -0.61024,0.12949 -0.86914,0 -0.73239,-0.36621 -1.00389,-1.37009 -1.73633,-1.73633 -0.25893,-0.12948 -0.66429,0.20474 -0.86914,0 -0.20485,-0.20471 0.20485,-0.6644 0,-0.86914 -0.20473,-0.20473 -0.60829,0.12949 -0.86718,0 -0.3662,-0.18311 -0.50294,-0.68602 -0.86914,-0.86914 -0.25894,-0.12948 -0.6643,0.20474 -0.86915,0 -0.20485,-0.20472 0.20485,-0.66248 0,-0.86718 -0.20473,-0.2047 -0.66429,0.2047 -0.86914,0 -0.20485,-0.20472 0.20485,-0.66445 0,-0.86915 -0.20473,-0.20473 -0.66233,0.2047 -0.86718,0 -0.20485,-0.20472 0.20485,-0.66444 0,-0.86914 -0.20474,-0.20473 -0.61025,0.12949 -0.86914,0 -0.73244,-0.36622 -1.0039,-1.37013 -1.73633,-1.73632 -0.25894,-0.12949 -0.61025,0.12948 -0.86914,0 -0.36624,-0.18311 -0.50291,-0.68603 -0.86914,-0.86915 -0.25898,-0.12945 -0.66234,0.20474 -0.86719,0 -0.20485,-0.20468 0.20485,-0.6644 0,-0.86914 -0.40944,-0.40944 -1.22037,0.25894 -1.73828,0 -0.3662,-0.18311 -0.50291,-0.68407 -0.86914,-0.86718 -0.25898,-0.12949 -0.66234,0.2047 -0.86719,0 -0.20485,-0.20473 0.20485,-0.66441 0,-0.86914 -1.7972,-1.79707 0.0691,2.74557 -1.73828,-0.86914 -0.11414,-0.22839 0,-3.01848 0,-3.47266 v -5.21289 -0.86719 c 0,-0.28951 -0.12964,-0.6102 0,-0.86914 1.27801,-2.55596 0.86914,1.34843 0.86914,-2.60547 0.12949,-0.38843 0.68621,-0.5029 0.86914,-0.86914 0.97504,-1.95003 -6.20056,-5.84571 -3.17969,-7.14648 z m 27.49805,92.26562 c 0.0191,-0.0382 0.0586,-0.0968 0.082,-0.14258 -0.13005,0.0811 -0.2052,0.14258 -0.082,0.14258 z m 0.082,-0.14258 c 0.30259,-0.18858 0.9896,-0.52407 0.78711,-0.72656 -0.25928,-0.25928 -0.58653,0.33371 -0.78711,0.72656 z m -21.79492,72.23243 v 0.86914 0.86718 c 0,-0.57906 0.40943,-2.14576 0,-1.73632 z m -6.94922,33.0039 c -0.0614,0.0308 -0.0795,0.0859 -0.0781,0.15235 0.13535,-0.0867 0.21789,-0.15235 0.0781,-0.15235 z m -0.0781,0.15235 c -0.26141,0.16737 -0.78906,0.447 -0.78906,0.71679 0,0.28951 0.66234,0.20485 0.86719,0 0.15627,-0.15618 -0.0738,-0.50301 -0.0781,-0.71679 z M 356.9668,388.62305 c -0.33588,-0.014 -0.73484,-0.0312 -0.85938,-0.0312 h -0.86914 c 0.56539,0 1.67615,0.54444 1.72852,0.0312 z m -5.19922,-26.95703 c 0.22971,10e-4 0.50829,0.12023 0.7168,0.0703 0.0633,-0.0522 0.14694,-0.13045 0.21874,-0.19336 0.14367,-0.26732 0.17915,-0.7461 -0.0703,-0.74609 -0.25875,0 -0.65535,0.47222 -0.86523,0.86914 z m 42.55664,-64.27344 v -0.86914 -0.86719 c 0,0.57903 -0.57902,1.73633 0,1.73633 z m -15.16992,131.0957 c 0.67833,-0.0186 1.84724,0.0566 2.14062,0.0566 0.28951,0 0.61024,-0.12964 0.86914,0 0.3662,0.18312 0.45967,0.86914 0.86914,0.86914 v 2.60547 0.86719 c 0,0.28951 0.20485,0.66429 0,0.86914 -0.20473,0.20485 -0.66429,-0.20485 -0.86914,0 -0.40943,0.40944 0.40944,1.32685 0,1.73633 -0.2047,0.20485 -0.66429,-0.20485 -0.86914,0 -0.40947,0.40943 0.40944,1.3288 0,1.73828 -0.20474,0.20485 -0.60829,-0.12964 -0.86719,0 -0.36619,0.18308 -0.5029,0.68583 -0.86914,0.86914 -0.25893,0.12964 -0.7395,-0.2589 -0.86914,0 -0.25889,0.51791 0.2589,1.21842 0,1.73633 -0.12948,0.2589 -0.57959,0 -0.86914,0 h -4.34179 c -0.23427,0 -1.46263,0.008 -2.60352,0.0117 -0.10354,-0.33587 -0.20897,-0.6737 -0.002,-0.88086 0.20471,-0.20485 0.6644,0.20485 0.86914,0 0.20901,-0.20901 -0.20901,-3.2656 0,-3.47461 0.20472,-0.20485 0.66249,0.20485 0.86719,0 0.2047,-0.20474 -0.2047,-0.66234 0,-0.86719 0.4094,-0.40944 1.32884,0.40944 1.73828,0 0.20473,-0.2047 -0.2047,-0.66429 0,-0.86914 0.20472,-0.20485 0.66248,0.20485 0.86718,0 0.20474,-0.20474 -0.12948,-0.61024 0,-0.86914 0.36622,-0.73244 1.37208,-1.00389 1.73828,-1.73633 0.12949,-0.25897 -0.2047,-0.66429 0,-0.86914 0.20472,-0.20485 0.66249,0.20485 0.86719,0 1.79708,-1.7972 -2.74557,0.071 0.86914,-1.73633 0.0661,-0.0331 0.23873,-0.0504 0.46485,-0.0566 z m 38.81445,26.92383 c 0.17086,0.0146 0.3796,0.12441 0.53906,0.11133 -0.1645,0.24998 -0.45434,0.81445 -0.73242,0.81445 -0.28951,0 -0.20485,-0.66234 0,-0.86719 0.0512,-0.0512 0.11834,-0.065 0.19336,-0.0586 z m -84.73242,60.53906 c -0.29174,-0.0137 -0.65418,0.0247 -0.76172,0.17383 -0.0716,0.099 -0.15402,0.19801 -0.23047,0.29688 0.44918,-0.0913 0.89644,-0.19281 1.33203,-0.33399 0.17448,-0.0567 -0.0481,-0.12306 -0.33984,-0.13672 z m -3.47461,1.42383 c -0.87974,0.60063 -0.84641,0.58043 -1.07617,0.73828 0.007,10e-4 0.0241,0.004 0.0312,0.006 0.30838,-0.20036 0.47677,-0.31095 0.97265,-0.62695 0.0232,-0.0394 0.0492,-0.0777 0.0723,-0.11719 z m -3.23242,0.35156 c 0.0311,0.01 0.17815,0.0376 0.27734,0.0586 0.0187,-0.006 0.0359,-0.0133 0.0547,-0.0195 -0.26302,-0.0424 -0.38597,-0.0562 -0.33203,-0.0391 z" />
    <path
       id="path4993"
       transform="scale(0.26458333)"
       style="fill:none;stroke:#000000;stroke-width:0.99999994px;stroke-linecap:butt;stroke-linejoin:miter;stroke-opacity:1"
       d="m 347.22656,522.34766 c 0.63166,0.52684 1.22716,1.08359 1.76758,1.68164 1.17171,-0.45194 2.10031,-0.76195 2.82813,-0.87696 0.17522,-0.15074 0.36983,-0.29192 0.59179,-0.42187 0.0951,-0.13599 0.20298,-0.2575 0.30664,-0.38281 z m 10.57422,1.19922 c -8.8e-4,0.002 -0.003,0.004 -0.004,0.006 0.14298,0.0236 0.28416,0.0579 0.42773,0.0781 0.14266,0.0201 -0.34595,-0.0691 -0.42383,-0.084 z m -7.23047,2.01171 c -0.0603,0.0368 -0.12172,0.072 -0.18164,0.10938 0.0567,-0.0305 0.12197,-0.07 0.17969,-0.10156 5.2e-4,-0.003 8.5e-4,-0.005 0.002,-0.008 z m -0.0449,0.22657 c -0.006,0.002 -0.0101,0.004 -0.0156,0.006 0.005,-4.6e-4 0.0104,-0.002 0.0156,-0.002 2.2e-4,-10e-4 -2.2e-4,-0.003 0,-0.004 z m -0.0215,0.10742 c -0.0211,0.007 -0.0528,0.0179 -0.0742,0.0254 0.0176,0.0277 0.0373,0.0542 0.0547,0.082 0.006,-0.0375 0.0135,-0.0705 0.0195,-0.10742 z m -9.47657,0.64453 c -0.01,0.007 -0.0193,0.0165 -0.0293,0.0234 0.0534,0.0243 0.10846,0.0497 0.16211,0.0742 0.0162,-0.01 0.0326,-0.0194 0.0488,-0.0293 -0.0686,-0.0249 -0.10921,-0.0421 -0.18164,-0.0684 z m -0.13086,0.10156 c -0.0441,0.035 -0.0886,0.0613 -0.13281,0.10156 0.0489,0.015 0.0976,0.0319 0.14649,0.0469 0.0304,-0.0186 0.0613,-0.038 0.0918,-0.0566 -0.0349,-0.0311 -0.0705,-0.0609 -0.10547,-0.0918 z m 1.77149,0.50586 c -0.0807,0.0281 -0.15802,0.0663 -0.23828,0.0957 0.20971,0.0594 0.36972,0.10203 0.51367,0.13868 -0.026,-0.0477 -0.052,-0.10635 -0.0781,-0.15039 -0.0772,-0.0315 -0.0962,-0.0446 -0.19726,-0.084 z" />
    <path
       style="fill:#666666;stroke:#000000;stroke-width:0.26458332000000001px;stroke-linecap:butt;stroke-linejoin:miter;stroke-opacity:1"
       d="m 98.127343,116.37634 c -0.459804,-0.23085 -0.906818,-0.48916 -1.379408,-0.69254 -0.121627,-0.0524 -1.389483,0 -1.608635,0 -0.158687,0 -0.849352,-0.0349 -0.919221,0 -0.0969,0.0484 -0.132911,0.18135 -0.229806,0.2298 -0.137028,0.0685 -0.351277,-0.10833 -0.459608,0 -0.05417,0.0542 0.05416,0.17564 0,0.22981 -0.05417,0.0542 -0.175641,-0.0542 -0.229807,0 -0.475474,0.47547 0.726589,-0.0186 -0.229803,0.45961 -0.06852,0.0343 -0.175641,-0.0542 -0.229807,0 -0.05416,0.0542 0.05417,0.17563 0,0.2298 -0.05416,0.0542 -0.229804,0.0766 -0.229804,0 0,-0.0766 0.229804,-0.0766 0.229804,0 0,0.1532 -0.351279,-0.10833 -0.45961,0 -0.05236,0.0524 0.05685,0.54153 0.07775,0.65613"
       id="path5061"
       inkscape:connector-curvature="0" />
    <path
       style="fill:#666666;stroke:#000000;stroke-width:0.26458332000000001px;stroke-linecap:butt;stroke-linejoin:miter;stroke-opacity:1"
       d="m 93.324017,138.20448 c 0.439447,1.0317 0.436452,1.20326 0.436452,2.06846 0,0.1532 0.04845,0.31427 0,0.45961 -0.03426,0.10277 -0.195549,0.12703 -0.229804,0.2298 -0.04845,0.14535 0.03715,0.31099 0,0.45961 -0.277432,1.10972 -0.10921,-0.0114 -0.45961,0.68942 -0.03426,0.0685 0,0.1532 0,0.2298 -0.0766,0.15321 -0.134795,0.3171 -0.229807,0.45961 -0.120182,0.18028 -0.339426,0.27934 -0.45961,0.45961 -1.225627,1.83844 0.842618,-0.84262 -0.689415,0.68942 -0.05416,0.0542 0.06851,0.19555 0,0.2298 -0.13703,0.0685 -0.314269,-0.0484 -0.45961,0 -0.102772,0.0343 -0.132911,0.18136 -0.229806,0.22981 -0.06994,0.035 -0.58592,0 -0.689415,0 -0.09084,0 -1.05088,0.0491 -1.149024,0 -0.0969,-0.0484 -0.132911,-0.18136 -0.229807,-0.22981 -0.244083,-0.12204 -0.215524,0.12205 -0.45961,0 -0.09689,-0.0484 -0.153202,-0.1532 -0.229804,-0.2298 -0.13516,-0.13516 -0.812802,-0.86601 -0.91922,-0.91922 -0.06851,-0.0343 -0.175639,0.0542 -0.229804,0 -0.05417,-0.0542 0,-0.1532 0,-0.22981 0,-0.38301 0,-0.76601 0,-1.14902 0,-0.61282 0,-1.22563 0,-1.83844 0,-0.15869 -0.03494,-0.84935 0,-0.91922 0.283969,-0.56794 0.229804,0.0793 0.229804,-0.45961 0,-0.38301 0,-0.76602 0,-1.14903 0,-0.22652 0,-0.68613 0,-0.45961 0,0.15321 0.118295,0.36226 0,0.45961 -0.103976,0.0856 -0.05098,-0.26445 -0.07647,-0.39667"
       id="path5065"
       inkscape:connector-curvature="0" />
    <path
       style="fill:#666666;stroke:#000000;stroke-width:0.26458332000000001px;stroke-linecap:butt;stroke-linejoin:miter;stroke-opacity:1"
       d="m 110.32291,126.69154 c 0.30091,0.31404 0.63732,0.59756 0.90274,0.94212 0.0468,0.0607 0,0.1532 0,0.2298 0,0.30641 0,0.61282 0,0.91922 0,1.53204 0,3.06407 0,4.5961 0,0.45962 0,0.91923 0,1.37884 0,0.10349 0.035,0.61948 0,0.68941 -0.0484,0.0969 -0.1532,0.1532 -0.2298,0.22981 -0.0766,0.0766 -0.1532,0.1532 -0.22981,0.2298 -0.0766,0.0766 -0.1532,0.1532 -0.2298,0.22981 -0.0766,0.0766 -0.13291,0.18136 -0.22981,0.2298 -0.0685,0.0343 -0.16129,-0.0343 -0.2298,0 -0.0969,0.0485 -0.12703,0.19555 -0.22981,0.22981 -0.14534,0.0485 -0.31426,-0.0485 -0.45961,0 -0.10277,0.0343 -0.12703,0.19555 -0.2298,0.2298 -0.13168,0.0439 -0.93328,0 -1.14903,0 -0.53621,0 -1.07242,0 -1.60863,0 -0.0766,0 -0.17564,0.0542 -0.22981,0 -0.0542,-0.0542 0.0542,-0.17564 0,-0.2298 -0.0542,-0.0542 -0.17564,0.0542 -0.2298,0 -0.0542,-0.0542 0,-0.15321 0,-0.22981 0,-0.0766 0,-0.1532 0,-0.2298 0,-0.0967 -0.0342,-1.31047 0,-1.37883 0.0484,-0.0969 0.18135,-0.13291 0.2298,-0.22981 0.0343,-0.0685 -0.0343,-0.16129 0,-0.2298 0.0485,-0.0969 0.18136,-0.13292 0.22981,-0.22981 0.0919,-0.18384 -0.0919,-0.50557 0,-0.68942 0.0484,-0.0969 0.18136,-0.13291 0.2298,-0.2298 0.0343,-0.0685 -0.0542,-0.17564 0,-0.2298 0.0542,-0.0542 0.17564,0.0542 0.22981,0 0.1149,-0.11491 -0.1149,-0.57452 0,-0.68942 0.0542,-0.0542 0.17564,0.0542 0.2298,0 0.0237,-0.0237 -0.0191,-1.09174 0,-1.14902 0.0343,-0.10278 0.18136,-0.13291 0.22981,-0.22981 0.0343,-0.0685 0,-0.1532 0,-0.2298 0,-0.10397 -0.0306,-1.31759 0,-1.37884 0.0485,-0.0969 0.18136,-0.13291 0.2298,-0.2298 0.0416,-0.0831 0,-0.98919 0,-1.14903 0,-0.0766 -0.0542,-0.17563 0,-0.2298 0.0542,-0.0542 0.17564,0.0542 0.22981,0 0.0542,-0.0542 0,-0.1532 0,-0.22981 0,-0.0766 0,-0.1532 0,-0.2298 0,-0.0766 0,-0.30641 0,-0.2298 0,0.1532 0,0.61281 0,0.4596 0,-0.2298 0,-0.4596 0,-0.68941 0,-0.2298 0,-0.45961 0,-0.68942 0,-0.0766 -0.0766,-0.2298 0,-0.2298 0.0766,0 0,0.30641 0,0.2298 0,-0.1532 -0.0685,-0.32258 0,-0.45961 0.0343,-0.0685 0.2298,-0.0766 0.2298,0 0,0.0766 -0.29354,-0.0425 -0.2298,0 0.285,0.18999 0.61274,0.30633 0.9191,0.45949"
       id="path5083"
       inkscape:connector-curvature="0" />
  </g>
</svg>
