<?xml version="1.0" encoding="UTF-8" standalone="no"?>
<!DOCTYPE svg PUBLIC "-//W3C//DTD SVG 1.1//EN" "http://www.w3.org/Graphics/SVG/1.1/DTD/svg11.dtd">
<svg xmlns="http://www.w3.org/2000/svg" xmlns:xl="http://www.w3.org/1999/xlink" version="1.1" viewBox="153 108 187 41" width="187pt" height="41pt" xmlns:dc="http://purl.org/dc/elements/1.1/"><metadata> Produced by OmniGraffle 6.6.2 <dc:date>2019-01-26 05:59:28 +0000</dc:date></metadata><defs/><g stroke="none" stroke-opacity="1" stroke-dasharray="none" fill="none" fill-opacity="1"><title>Canvas 1</title><g><title>Layer 1</title><path d="M 164.5 111.5 L 329 111.5 C 333.41828 111.5 337 115.08172 337 119.5 L 337 133.5 C 337 137.91828 333.41828 141.5 329 141.5 L 164.5 141.5 C 160.08172 141.5 156.5 137.91828 156.5 133.5 L 156.5 119.5 C 156.5 115.08172 160.08172 111.5 164.5 111.5 Z" fill="white"/><path d="M 164.5 111.5 L 329 111.5 C 333.41828 111.5 337 115.08172 337 119.5 L 337 133.5 C 337 137.91828 333.41828 141.5 329 141.5 L 164.5 141.5 C 160.08172 141.5 156.5 137.91828 156.5 133.5 L 156.5 119.5 C 156.5 115.08172 160.08172 111.5 164.5 111.5 Z" stroke="#005c5d" stroke-linecap="round" stroke-linejoin="round" stroke-width="3"/><path d="M 162.5 146.5 L 171.5 146.5 C 172.88071 146.5 174 145.38071 174 144 L 174 144 C 174 142.61929 172.88071 141.5 171.5 141.5 L 162.5 141.5 C 161.11929 141.5 160 142.61929 160 144 L 160 144 C 160 145.38071 161.11929 146.5 162.5 146.5 Z" fill="#3a8eed"/><path d="M 162.5 146.5 L 171.5 146.5 C 172.88071 146.5 174 145.38071 174 144 L 174 144 C 174 142.61929 172.88071 141.5 171.5 141.5 L 162.5 141.5 C 161.11929 141.5 160 142.61929 160 144 L 160 144 C 160 145.38071 161.11929 146.5 162.5 146.5 Z" stroke="#235e00" stroke-linecap="round" stroke-linejoin="round" stroke-width="1"/><path d="M 185.5 146.5 L 194.5 146.5 C 195.88071 146.5 197 145.38071 197 144 L 197 144 C 197 142.61929 195.88071 141.5 194.5 141.5 L 185.5 141.5 C 184.11929 141.5 183 142.61929 183 144 L 183 144 C 183 145.38071 184.11929 146.5 185.5 146.5 Z" fill="#3a8eed"/><path d="M 185.5 146.5 L 194.5 146.5 C 195.88071 146.5 197 145.38071 197 144 L 197 144 C 197 142.61929 195.88071 141.5 194.5 141.5 L 185.5 141.5 C 184.11929 141.5 183 142.61929 183 144 L 183 144 C 183 145.38071 184.11929 146.5 185.5 146.5 Z" stroke="#235e00" stroke-linecap="round" stroke-linejoin="round" stroke-width="1"/><path d="M 208.5 146.5 L 217.5 146.5 C 218.88071 146.5 220 145.38071 220 144 L 220 144 C 220 142.61929 218.88071 141.5 217.5 141.5 L 208.5 141.5 C 207.11929 141.5 206 142.61929 206 144 L 206 144 C 206 145.38071 207.11929 146.5 208.5 146.5 Z" fill="#3a8eed"/><path d="M 208.5 146.5 L 217.5 146.5 C 218.88071 146.5 220 145.38071 220 144 L 220 144 C 220 142.61929 218.88071 141.5 217.5 141.5 L 208.5 141.5 C 207.11929 141.5 206 142.61929 206 144 L 206 144 C 206 145.38071 207.11929 146.5 208.5 146.5 Z" stroke="#235e00" stroke-linecap="round" stroke-linejoin="round" stroke-width="1"/><path d="M 231.5 146.5 L 240.5 146.5 C 241.88071 146.5 243 145.38071 243 144 L 243 144 C 243 142.61929 241.88071 141.5 240.5 141.5 L 231.5 141.5 C 230.11929 141.5 229 142.61929 229 144 L 229 144 C 229 145.38071 230.11929 146.5 231.5 146.5 Z" fill="#3a8eed"/><path d="M 231.5 146.5 L 240.5 146.5 C 241.88071 146.5 243 145.38071 243 144 L 243 144 C 243 142.61929 241.88071 141.5 240.5 141.5 L 231.5 141.5 C 230.11929 141.5 229 142.61929 229 144 L 229 144 C 229 145.38071 230.11929 146.5 231.5 146.5 Z" stroke="#235e00" stroke-linecap="round" stroke-linejoin="round" stroke-width="1"/><path d="M 254.5 146.5 L 263.5 146.5 C 264.88071 146.5 266 145.38071 266 144 L 266 144 C 266 142.61929 264.88071 141.5 263.5 141.5 L 254.5 141.5 C 253.11929 141.5 252 142.61929 252 144 L 252 144 C 252 145.38071 253.11929 146.5 254.5 146.5 Z" fill="#3a8eed"/><path d="M 254.5 146.5 L 263.5 146.5 C 264.88071 146.5 266 145.38071 266 144 L 266 144 C 266 142.61929 264.88071 141.5 263.5 141.5 L 254.5 141.5 C 253.11929 141.5 252 142.61929 252 144 L 252 144 C 252 145.38071 253.11929 146.5 254.5 146.5 Z" stroke="#235e00" stroke-linecap="round" stroke-linejoin="round" stroke-width="1"/><path d="M 277.5 146.5 L 286.5 146.5 C 287.88071 146.5 289 145.38071 289 144 L 289 144 C 289 142.61929 287.88071 141.5 286.5 141.5 L 277.5 141.5 C 276.11929 141.5 275 142.61929 275 144 L 275 144 C 275 145.38071 276.11929 146.5 277.5 146.5 Z" fill="#3a8eed"/><path d="M 277.5 146.5 L 286.5 146.5 C 287.88071 146.5 289 145.38071 289 144 L 289 144 C 289 142.61929 287.88071 141.5 286.5 141.5 L 277.5 141.5 C 276.11929 141.5 275 142.61929 275 144 L 275 144 C 275 145.38071 276.11929 146.5 277.5 146.5 Z" stroke="#235e00" stroke-linecap="round" stroke-linejoin="round" stroke-width="1"/><path d="M 300.5 146.5 L 309.5 146.5 C 310.88071 146.5 312 145.38071 312 144 L 312 144 C 312 142.61929 310.88071 141.5 309.5 141.5 L 300.5 141.5 C 299.11929 141.5 298 142.61929 298 144 L 298 144 C 298 145.38071 299.11929 146.5 300.5 146.5 Z" fill="#3a8eed"/><path d="M 300.5 146.5 L 309.5 146.5 C 310.88071 146.5 312 145.38071 312 144 L 312 144 C 312 142.61929 310.88071 141.5 309.5 141.5 L 300.5 141.5 C 299.11929 141.5 298 142.61929 298 144 L 298 144 C 298 145.38071 299.11929 146.5 300.5 146.5 Z" stroke="#235e00" stroke-linecap="round" stroke-linejoin="round" stroke-width="1"/><path d="M 323.5 146.5 L 332.5 146.5 C 333.88071 146.5 335 145.38071 335 144 L 335 144 C 335 142.61929 333.88071 141.5 332.5 141.5 L 323.5 141.5 C 322.11929 141.5 321 142.61929 321 144 L 321 144 C 321 145.38071 322.11929 146.5 323.5 146.5 Z" fill="#3a8eed"/><path d="M 323.5 146.5 L 332.5 146.5 C 333.88071 146.5 335 145.38071 335 144 L 335 144 C 335 142.61929 333.88071 141.5 332.5 141.5 L 323.5 141.5 C 322.11929 141.5 321 142.61929 321 144 L 321 144 C 321 145.38071 322.11929 146.5 323.5 146.5 Z" stroke="#235e00" stroke-linecap="round" stroke-linejoin="round" stroke-width="1"/></g></g></svg>
