<?xml version="1.0" encoding="UTF-8" standalone="no"?>
<!DOCTYPE svg PUBLIC "-//W3C//DTD SVG 1.1//EN" "http://www.w3.org/Graphics/SVG/1.1/DTD/svg11.dtd">
<svg xmlns="http://www.w3.org/2000/svg" xmlns:xl="http://www.w3.org/1999/xlink" version="1.1" viewBox="226 35 461 482" width="461pt" height="482pt" xmlns:dc="http://purl.org/dc/elements/1.1/"><metadata> Produced by OmniGraffle 6.6.2 <dc:date>2019-01-26 05:21:33 +0000</dc:date></metadata><defs><radialGradient cx="0" cy="0" r="1" id="Gradient" gradientUnits="userSpaceOnUse"><stop offset="0" stop-color="#3a0063"/><stop offset=".5" stop-color="#cd67ff"/><stop offset="1" stop-color="#1c00ff"/></radialGradient><radialGradient id="Obj_Gradient" xl:href="#Gradient" gradientTransform="translate(493.75 199.58389) scale(47.327984)"/><linearGradient x1="0" x2="1" id="Gradient_2" gradientUnits="userSpaceOnUse"><stop offset="0" stop-color="#68bc36"/><stop offset=".5" stop-color="#218041"/><stop offset="1" stop-color="#68bc36"/></linearGradient><linearGradient id="Obj_Gradient_2" xl:href="#Gradient_2" gradientTransform="translate(578.9178 157.03704) rotate(69) scale(91.14769)"/></defs><g stroke="none" stroke-opacity="1" stroke-dasharray="none" fill="none" fill-opacity="1"><title>Canvas 1</title><g><title>Layer 1</title><path d="M 376.46912 482.79536 L 301.03064 260.87657 C 299.60862 256.69339 295.0647 254.45502 290.88152 255.87704 C 286.98205 257.20262 284.72624 261.27222 285.66849 265.2816 L 339.29207 493.4557 C 340.30288 497.7568 344.60903 500.4241 348.91013 499.4133 C 349.03586 499.38375 349.16085 499.35117 349.285 499.31557 L 371.0999 493.06025 C 375.34701 491.8424 377.80273 487.41218 376.58489 483.16505 C 376.54929 483.0409 376.51069 482.91764 376.46912 482.79536 Z" fill="#c4620a"/><path d="M 376.46912 482.79536 L 301.03064 260.87657 C 299.60862 256.69339 295.0647 254.45502 290.88152 255.87704 C 286.98205 257.20262 284.72624 261.27222 285.66849 265.2816 L 339.29207 493.4557 C 340.30288 497.7568 344.60903 500.4241 348.91013 499.4133 C 349.03586 499.38375 349.16085 499.35117 349.285 499.31557 L 371.0999 493.06025 C 375.34701 491.8424 377.80273 487.41218 376.58489 483.16505 C 376.54929 483.0409 376.51069 482.91764 376.46912 482.79536 Z" stroke="black" stroke-linecap="round" stroke-linejoin="round" stroke-width="1"/><path d="M 541.74352 244.06815 L 336.84792 501.19204 C 334.09444 504.6474 334.66341 509.68066 338.11877 512.43414 C 339.53534 513.56298 341.29306 514.17767 343.1044 514.17767 L 548 514.17767 C 552.41828 514.17767 556 510.59595 556 506.17767 L 556 249.05378 C 556 244.6355 552.41828 241.05378 548 241.05378 C 545.56438 241.05378 543.2614 242.16335 541.74352 244.06815 Z" fill="#c24f0f"/><path d="M 541.74352 244.06815 L 336.84792 501.19204 C 334.09444 504.6474 334.66341 509.68066 338.11877 512.43414 C 339.53534 513.56298 341.29306 514.17767 343.1044 514.17767 L 548 514.17767 C 552.41828 514.17767 556 510.59595 556 506.17767 L 556 249.05378 C 556 244.6355 552.41828 241.05378 548 241.05378 C 545.56438 241.05378 543.2614 242.16335 541.74352 244.06815 Z" stroke="black" stroke-linecap="round" stroke-linejoin="round" stroke-width="1"/><path d="M 539.60727 138.08319 L 500.98363 56.314127 C 499.09658 52.319103 494.32822 50.610253 490.3332 52.497303 C 488.65716 53.28898 487.30804 54.638093 486.51637 56.314127 L 447.89273 138.08319 C 446.00568 142.07822 447.71453 146.84658 451.70956 148.73363 C 452.77792 149.238275 453.9448 149.5 455.12636 149.5 L 532.37364 149.5 C 536.7919 149.5 540.37364 145.91828 540.37364 141.5 C 540.37364 140.318445 540.1119 139.15156 539.60727 138.08319 Z" fill="#d76811"/><path d="M 539.60727 138.08319 L 500.98363 56.314127 C 499.09658 52.319103 494.32822 50.610253 490.3332 52.497303 C 488.65716 53.28898 487.30804 54.638093 486.51637 56.314127 L 447.89273 138.08319 C 446.00568 142.07822 447.71453 146.84658 451.70956 148.73363 C 452.77792 149.238275 453.9448 149.5 455.12636 149.5 L 532.37364 149.5 C 536.7919 149.5 540.37364 145.91828 540.37364 141.5 C 540.37364 140.318445 540.1119 139.15156 539.60727 138.08319 Z" stroke="black" stroke-linecap="round" stroke-linejoin="round" stroke-width="1"/><path d="M 560.1611 138.40214 L 595.37414 54.561564 C 597.08504 50.48799 601.7743 48.572666 605.84786 50.283567 C 607.77888 51.094593 609.31483 52.630548 610.12586 54.561564 L 645.3389 138.40214 C 647.0498 142.47571 645.13448 147.16496 641.0609 148.87586 C 640.08005 149.28781 639.0269 149.5 637.96304 149.5 L 567.53696 149.5 C 563.11868 149.5 559.53696 145.91828 559.53696 141.5 C 559.53696 140.43615 559.74914 139.38299 560.1611 138.40214 Z" fill="#db6506"/><path d="M 560.1611 138.40214 L 595.37414 54.561564 C 597.08504 50.48799 601.7743 48.572666 605.84786 50.283567 C 607.77888 51.094593 609.31483 52.630548 610.12586 54.561564 L 645.3389 138.40214 C 647.0498 142.47571 645.13448 147.16496 641.0609 148.87586 C 640.08005 149.28781 639.0269 149.5 637.96304 149.5 L 567.53696 149.5 C 563.11868 149.5 559.53696 145.91828 559.53696 141.5 C 559.53696 140.43615 559.74914 139.38299 560.1611 138.40214 Z" stroke="black" stroke-linecap="round" stroke-linejoin="round" stroke-width="1"/><path d="M 446.5 130 L 642.5 130 C 665.684 130 684.5 171.216 684.5 222 C 684.5 272.784 665.684 314 642.5 314 L 446.5 314 C 423.316 314 404.5 272.784 404.5 222 C 404.5 171.216 423.316 130 446.5 130" fill="#fd7a16"/><path d="M 446.5 130 L 642.5 130 C 665.684 130 684.5 171.216 684.5 222 C 684.5 272.784 665.684 314 642.5 314 L 446.5 314 C 423.316 314 404.5 272.784 404.5 222 C 404.5 171.216 423.316 130 446.5 130" stroke="#fd7f0f" stroke-linecap="round" stroke-linejoin="round" stroke-width="1"/><path d="M 555.98757 233 C 555.2805 233 545.02802 245.5 544.6745 245.5 C 544.32096 245.5 526.9978 235.32558 526.9978 235.32558 C 526.9978 235.32558 556.69464 233 555.98757 233 Z" fill="black"/><path d="M 555.98757 233 C 555.2805 233 545.02802 245.5 544.6745 245.5 C 544.32096 245.5 526.9978 235.32558 526.9978 235.32558 C 526.9978 235.32558 556.69464 233 555.98757 233 Z" stroke="black" stroke-linecap="round" stroke-linejoin="round" stroke-width="1"/><path d="M 621.37055 212.4555 C 606.3471 252.87713 567 197.29738 567 197.29738 C 567 197.29738 636.394 172.03386 621.37055 212.4555 Z" fill="#23fa05"/><path d="M 621.37055 212.4555 C 606.3471 252.87713 567 197.29738 567 197.29738 C 567 197.29738 636.394 172.03386 621.37055 212.4555 Z" stroke="black" stroke-linecap="round" stroke-linejoin="round" stroke-width="1"/><ellipse cx="493.75" cy="199.58389" rx="28.250045" ry="37.972098" fill="url(#Obj_Gradient)"/><ellipse cx="493.75" cy="199.58389" rx="28.250045" ry="37.972098" stroke="black" stroke-linecap="round" stroke-linejoin="round" stroke-width="1"/><ellipse cx="595.25" cy="199.58389" rx="28.250045" ry="37.972098" fill="url(#Obj_Gradient_2)"/><ellipse cx="595.25" cy="199.58389" rx="28.250045" ry="37.972098" stroke="black" stroke-linecap="round" stroke-linejoin="round" stroke-width="1"/><path d="M 522.43683 259.56813 L 523.62597 258.303 C 523.90096 258.01044 523.8867 257.55036 523.59416 257.27538 C 523.45507 257.14465 523.27015 257.07387 523.07932 257.07831 L 509.532 257.39394 C 509.34407 257.39831 509.18817 257.24951 509.1838 257.06157 C 509.17955 256.87952 509.31934 256.72638 509.501 256.71404 L 533.20266 255.10417 C 533.5764 255.07879 533.89996 255.36119 533.92534 255.73493 C 533.9368 255.90372 533.88478 256.0707 533.77947 256.20311 L 533.77947 256.20311 C 533.54268 256.50082 533.59207 256.93412 533.88978 257.17091 C 534.02212 257.27617 534.18855 257.32907 534.35737 257.31953 L 562.7304 255.71696 C 563.22925 255.68878 563.6565 256.07035 563.68468 256.56921 C 563.6952 256.75581 563.6477 256.94109 563.54868 257.0996 L 563.54868 257.0996 C 563.2759 257.53621 563.4087 258.1113 563.84533 258.38408 C 564.002 258.48196 564.18423 258.53108 564.36887 258.52521 L 575.68612 258.16536 C 575.84378 258.16034 575.97565 258.28409 575.98066 258.44175 C 575.98552 258.59456 575.8692 258.7241 575.71674 258.73562 L 554.0282 260.37593 C 553.5607 260.41129 553.15305 260.06096 553.1177 259.59347 C 553.1044 259.4175 553.14625 259.24176 553.23746 259.09069 L 553.23746 259.09069 C 553.48454 258.68144 553.35308 258.14939 552.94383 257.9023 C 552.79382 257.81174 552.61986 257.76883 552.44494 257.77926 L 522.43712 259.56813 Z" fill="black"/><path d="M 522.43683 259.56813 L 523.62597 258.303 C 523.90096 258.01044 523.8867 257.55036 523.59416 257.27538 C 523.45507 257.14465 523.27015 257.07387 523.07932 257.07831 L 509.532 257.39394 C 509.34407 257.39831 509.18817 257.24951 509.1838 257.06157 C 509.17955 256.87952 509.31934 256.72638 509.501 256.71404 L 533.20266 255.10417 C 533.5764 255.07879 533.89996 255.36119 533.92534 255.73493 C 533.9368 255.90372 533.88478 256.0707 533.77947 256.20311 L 533.77947 256.20311 C 533.54268 256.50082 533.59207 256.93412 533.88978 257.17091 C 534.02212 257.27617 534.18855 257.32907 534.35737 257.31953 L 562.7304 255.71696 C 563.22925 255.68878 563.6565 256.07035 563.68468 256.56921 C 563.6952 256.75581 563.6477 256.94109 563.54868 257.0996 L 563.54868 257.0996 C 563.2759 257.53621 563.4087 258.1113 563.84533 258.38408 C 564.002 258.48196 564.18423 258.53108 564.36887 258.52521 L 575.68612 258.16536 C 575.84378 258.16034 575.97565 258.28409 575.98066 258.44175 C 575.98552 258.59456 575.8692 258.7241 575.71674 258.73562 L 554.0282 260.37593 C 553.5607 260.41129 553.15305 260.06096 553.1177 259.59347 C 553.1044 259.4175 553.14625 259.24176 553.23746 259.09069 L 553.23746 259.09069 C 553.48454 258.68144 553.35308 258.14939 552.94383 257.9023 C 552.79382 257.81174 552.61986 257.76883 552.44494 257.77926 L 522.43712 259.56813 Z" stroke="black" stroke-linecap="round" stroke-linejoin="round" stroke-width="1"/></g></g></svg>
